# xmcd
#
# Track frame offsets:
#	150
#	13658
#	28059
#	40488
#	55059
#	68176
#	80697
#	92204
#	105648
#	117954
#	130470
#	144105
#	157456
#	170486
#	183064
#	195470
#	209273
#	220483
#	234303
#	246190
#
# Disc length: 3453 seconds
#
# Revision: 1
# Processed by: cddbd v1.5.2PL0 Copyright (c) Steve Scherf et al.
# Submitted via: audiograbber 1.83.01
#
DISCID=210d7b14
DTITLE=Original Tiroler Echo - Gold-Edition
DYEAR=2005
DGENRE=Volkstümliche Musik
TTITLE0=Die Sterne am Himmel
TTITLE1=Der alte Holzknecht
TTITLE2=I schick Dir a Busserl
TTITLE3=Sens'n Boarischer
TTITLE4=Maria Magdalena
TTITLE5=Im Herzen muass man's spürn
TTITLE6=Einmal hin, einmal her
TTITLE7=Nimm Dir zeit für D'Musig
TTITLE8=Ich bin ein Vagabund der Berge
TTITLE9=Mei Herz bleibt dahoam
TTITLE10=A Ziacha Musi
TTITLE11=Heut' ist ein Tag zum Feiern
TTITLE12=Wenn die Sonn' vom Himmel lacht
TTITLE13=Mander, es isch Zeit
TTITLE14=Hansi Hinterseer-Marsch
TTITLE15=Wenn i nit i war, war i gern der HiHa
TTITLE16=Wenn i zu mei'n Dirndl geh'
TTITLE17=Immer noch guat drauf (Polka)
TTITLE18=Otti Polka
TTITLE19=Wenn der Mond am Himmel steht
EXTD=
EXTT0=
EXTT1=
EXTT2=
EXTT3=
EXTT4=
EXTT5=
EXTT6=
EXTT7=
EXTT8=
EXTT9=
EXTT10=
EXTT11=
EXTT12=
EXTT13=
EXTT14=
EXTT15=
EXTT16=
EXTT17=
EXTT18=
EXTT19=
PLAYORDER=
